<?xml version="1.0" encoding="utf-8"?>
<!-- Generator: Adobe Illustrator 15.0.0, SVG Export Plug-In . SVG Version: 6.00 Build 0)  -->
<!DOCTYPE svg PUBLIC "-//W3C//DTD SVG 1.1//EN" "http://www.w3.org/Graphics/SVG/1.1/DTD/svg11.dtd">
<svg version="1.1" id="Calque_1" xmlns="http://www.w3.org/2000/svg" xmlns:xlink="http://www.w3.org/1999/xlink" x="0px" y="0px"
	 width="497.559px" height="127.409px" viewBox="0 0 497.559 127.409" enable-background="new 0 0 497.559 127.409"
	 xml:space="preserve">
<g>
	<path fill="#006C50" d="M136.801,53.119c3.18,0,6.479,0.972,9.188,2.915l-2.062,2.68c-2.208-1.531-4.064-2.385-6.862-2.385
		c-4.859,0-8.658,3.033-8.658,7.451c0,4.418,3.799,7.451,8.658,7.451c2.945,0,4.889-0.914,7.245-2.504l2.062,2.681
		c-2.768,1.972-6.243,3.033-9.571,3.033c-6.685,0-12.987-3.946-12.987-10.691C123.814,57.006,130.116,53.119,136.801,53.119z"/>
	<path fill="#006C50" d="M150.757,53.472h11.161c5.183,0,9.395,2.091,9.395,6.626c0,3.534-2.592,5.389-6.096,6.184l6.744,7.805
		h-5.154l-6.125-7.187h-5.507v7.187h-4.417V53.472z M161.594,63.691c3.122,0,5.124-1.295,5.124-3.534
		c0-2.179-1.914-3.387-5.153-3.387h-6.391v6.92H161.594z"/>
	<path fill="#006C50" d="M176.198,68.138V53.472h18.671v3.298h-14.253v4.977h13.076v3.21h-13.076v3.181
		c0,1.796,0.854,2.65,2.591,2.65h12.075v3.299h-13.135C178.377,74.087,176.198,71.878,176.198,68.138z M190.422,47.583l-3.416,3.622
		h-3.77l2.591-3.622H190.422z"/>
	<path fill="#006C50" d="M200.549,53.472h9.306c7.951,0,13.252,4.123,13.252,10.308c0,6.184-5.301,10.308-13.252,10.308h-9.306
		V53.472z M210.15,70.789c5.006,0,8.363-2.798,8.363-6.979c0-4.211-3.357-7.039-8.363-7.039h-5.183v14.018H210.15z"/>
	<path fill="#006C50" d="M227.787,53.472h4.417v20.615h-4.417V53.472z"/>
	<path fill="#006C50" d="M236.591,56.771v-3.298h20.262v3.298h-7.922v17.317h-4.417V56.771H236.591z"/>
	<path fill="#006C50" d="M283.972,69.11h-11.368l-2.474,4.978h-4.506l10.69-20.615h4.506l10.69,20.615h-5.065L283.972,69.11z
		 M282.352,65.9l-4.064-8.187l-4.063,8.187H282.352z"/>
	<path fill="#006C50" d="M305.79,53.119c3.181,0,6.479,0.972,9.188,2.915l-2.062,2.68c-2.209-1.531-4.063-2.385-6.861-2.385
		c-4.859,0-8.658,2.974-8.658,7.391c0,4.358,3.387,7.511,8.511,7.511c2.268,0,4.358-0.619,5.831-1.591v-3.946h-6.214v-3.151h10.631
		v8.658c-2.474,1.768-5.978,3.24-10.425,3.24c-7.774,0-12.929-4.595-12.929-10.691C292.803,57.006,299.105,53.119,305.79,53.119z"/>
	<path fill="#006C50" d="M321.72,53.472h11.162c5.183,0,9.394,2.091,9.394,6.626c0,3.534-2.591,5.389-6.096,6.184l6.744,7.805
		h-5.153l-6.126-7.187h-5.507v7.187h-4.418V53.472z M332.558,63.691c3.121,0,5.124-1.295,5.124-3.534
		c0-2.179-1.914-3.387-5.153-3.387h-6.391v6.92H332.558z"/>
	<path fill="#006C50" d="M347.896,53.472h4.418v20.615h-4.418V53.472z"/>
	<path fill="#006C50" d="M370.277,53.119c3.181,0,6.479,0.972,9.188,2.915l-2.062,2.68c-2.209-1.531-4.063-2.385-6.861-2.385
		c-4.859,0-8.658,3.033-8.658,7.451c0,4.418,3.799,7.451,8.658,7.451c2.944,0,4.889-0.914,7.244-2.504l2.062,2.681
		c-2.769,1.972-6.243,3.033-9.571,3.033c-6.685,0-12.987-3.946-12.987-10.691C357.29,57.006,363.593,53.119,370.277,53.119z"/>
	<path fill="#006C50" d="M381.436,63.78c0-5.831,5.419-10.661,13.047-10.661c7.627,0,13.046,4.83,13.046,10.661
		c0,5.83-5.419,10.661-13.046,10.661C386.854,74.441,381.436,69.61,381.436,63.78z M386.03,63.78c0,4.152,3.445,7.451,8.452,7.451
		c5.006,0,8.451-3.299,8.451-7.451s-3.445-7.451-8.451-7.451C389.476,56.329,386.03,59.627,386.03,63.78z"/>
	<path fill="#006C50" d="M411.618,53.472h4.418v17.316h13.104v3.299h-17.522V53.472z"/>
	<path fill="#006C50" d="M431.907,68.138V53.472h18.671v3.298h-14.253v4.977H449.4v3.21h-13.075v3.181
		c0,1.796,0.854,2.65,2.591,2.65h12.074v3.299h-13.134C434.087,74.087,431.907,71.878,431.907,68.138z"/>
</g>
<rect fill="none" width="497.559" height="127.409"/>
<g>
	<rect x="42.47" y="79.504" fill="#006C50" width="60.771" height="5.435"/>
	<g>
		<path fill="#006C50" d="M81.109,49.917l4.102,10.27l7.245-3.811l-6.275-13.907h-9.129L64.228,66.395
			c0.01,0.004,6.309-0.194,10.346-3.236C75.596,62.558,78.473,55,81.109,49.917L81.109,49.917L81.109,49.917z"/>
		<path fill="#009597" d="M92.456,56.376l-7.245,3.811c-6.2,3.175-12.088,5.959-15.259,6.855c-8.366,2.41-18.556,3.855-22.216,0.614
			c-3.442-3.057,4.507-15.854,19.543-18.701c2.438-0.543,3.861-0.404,3.861-0.388c0-0.016-1.031-4.376-1.833-5.295
			c-1.122-1.372-2.22-1.654-3.858-1.446c-3.255,0.194-17.101,3.885-22.564,15.421c-3.046,6.554,1.005,13.174,3.627,15.09
			c1.218,0.891,9.081,7.94,27.262,0.813c17.916-6.95,33.964-17.896,33.977-17.896v-7.323
			C107.745,47.923,100.67,51.977,92.456,56.376z"/>
		<path fill="#006C50" d="M87.753,66.862c0.67,1.575,2.597,6.155,3.089,7.476c0.643,1.446,2.249,1.446,2.249,1.439h8.358
			l-6.225-12.9C92.944,64.156,90.43,65.505,87.753,66.862z"/>
	</g>
	<path fill="#E2231A" d="M107.752,45.078c-0.013-0.002-9.562,5.484-11.799,6.319c-2.057,0.813-2.829-0.262-3.075-0.638
		c-0.552-0.843-1.458-3.626-1.586-4.046c0.055,0.012,0.583,0.116,1.805-0.194c1.455-0.369,14.643-7.743,14.656-7.739V45.078
		L107.752,45.078z"/>
</g>
</svg>
